<?xml version="1.0" encoding="utf-8"?>
<!-- Generator: Adobe Illustrator 24.1.0, SVG Export Plug-In . SVG Version: 6.00 Build 0)  -->
<svg version="1.1" xmlns="http://www.w3.org/2000/svg" xmlns:xlink="http://www.w3.org/1999/xlink" x="0px" y="0px"
	 viewBox="0 0 750 500" style="enable-background:new 0 0 750 500;" xml:space="preserve">
<style type="text/css">
	.st0{fill:#07898B;}
	.st1{fill:#262722;}
	.st2{fill:#E8AF94;}
	.st3{fill:#E180A0;}
	.st4{fill:none;stroke:#000000;stroke-width:0.9147;stroke-linecap:round;stroke-linejoin:round;stroke-miterlimit:10;}
	.st5{fill:none;stroke:#D4688F;stroke-width:0.9519;stroke-linecap:round;stroke-linejoin:round;stroke-miterlimit:10;}
	.st6{fill:#A74B22;}
	.st7{fill:#7B97FB;}
	.st8{fill:#E0A78F;}
	.st9{fill:none;stroke:#000000;stroke-width:0.865;stroke-linecap:round;stroke-linejoin:round;stroke-miterlimit:10;}
	.st10{fill:none;stroke:#B9635E;stroke-width:0.6407;stroke-linecap:round;stroke-linejoin:round;stroke-miterlimit:10;}
	.st11{fill:none;stroke:#B9635E;stroke-width:0.6612;stroke-linecap:round;stroke-linejoin:round;stroke-miterlimit:10;}
	.st12{fill:#1E0B02;}
	.st13{fill:none;stroke:#000000;stroke-width:0.6612;stroke-linecap:round;stroke-linejoin:round;stroke-miterlimit:10;}
	.st14{fill:#E8B499;}
	.st15{fill:#FFFFFF;}
	.st16{fill:none;stroke:#494949;stroke-width:0.9528;stroke-linecap:round;stroke-linejoin:round;stroke-miterlimit:10;}
	.st17{fill:#4E8985;}
	.st18{fill:none;stroke:#000000;stroke-width:0.9528;stroke-linecap:round;stroke-linejoin:round;stroke-miterlimit:10;}
	.st19{fill:#DA4412;}
	.st20{fill:none;stroke:#C47268;stroke-width:0.6887;stroke-linecap:round;stroke-linejoin:round;stroke-miterlimit:10;}
	.st21{fill:none;stroke:#1E0B02;stroke-width:0.9565;stroke-linecap:round;stroke-linejoin:round;stroke-miterlimit:10;}
	.st22{opacity:0.23;fill:#FFFFFF;}
	.st23{fill:none;stroke:#FFFFFF;stroke-width:0.4927;stroke-miterlimit:10;}
	.st24{fill:none;stroke:#4E8985;stroke-width:1.9384;stroke-linecap:round;stroke-linejoin:round;stroke-miterlimit:10;}
	.st25{fill:#E6A9A0;}
	.st26{fill:#EEC86A;}
	.st27{fill:none;stroke:#FFFFFF;stroke-width:1.9384;stroke-miterlimit:10;}
	.st28{fill:#C67D69;}
	.st29{fill:none;stroke:#A8523F;stroke-width:0.7482;stroke-linecap:round;stroke-linejoin:round;stroke-miterlimit:10;}
	.st30{clip-path:url(#XMLID_4_);fill:#FFFFFF;}
	.st31{clip-path:url(#XMLID_5_);fill:#FFFFFF;}
	.st32{fill:#A1B9FC;}
	.st33{fill:#CF7C6C;}
	.st34{clip-path:url(#XMLID_6_);fill:#FFFFFF;}
	.st35{clip-path:url(#XMLID_7_);fill:#FFFFFF;}
	.st36{fill:#DE9A8C;}
	.st37{fill:none;stroke:#C47268;stroke-width:0.7519;stroke-linecap:round;stroke-linejoin:round;stroke-miterlimit:10;}
	.st38{fill:none;stroke:#C47268;stroke-width:0.6951;stroke-linecap:round;stroke-linejoin:round;stroke-miterlimit:10;}
	.st39{fill:none;stroke:#000000;stroke-width:0.6951;stroke-linecap:round;stroke-linejoin:round;stroke-miterlimit:10;}
	.st40{fill:none;stroke:#6081EA;stroke-width:0.6735;stroke-linecap:round;stroke-linejoin:round;stroke-miterlimit:10;}
	
		.st41{display:none;fill:none;stroke:#D6B997;stroke-width:0.9916;stroke-linecap:round;stroke-linejoin:round;stroke-miterlimit:10;}
</style>
<g id="BACKGROUND">
	<rect class="st0" width="750" height="500"/>
</g>
<g id="OBJECTS">
	<g>
		<g>
			<g>
				<g>
					<path class="st1" d="M183.38,438.98l9.73,5.36c1.03,0.57,1.66,1.87,1.34,3.1c-0.25,0.97-1.08,1.72-3.25,1.76
						c-4.81,0.1-26.1-3.45-26.1-3.45v2.74l-9.95,0.02c0,0-0.62-14.12,2.39-15.96L183.38,438.98z"/>
					<path class="st2" d="M170.34,430.24l13.04,8.74c0,0-1.68,4.81-9.11,1.6c-7.43-3.21-16.73-8.04-16.73-8.04l1.36-3.66
						L170.34,430.24z"/>
				</g>
				<polygon class="st2" points="158.9,428.88 157.54,388.35 170.46,389.2 170.46,434.45 				"/>
			</g>
			<g>
				<g>
					<path class="st1" d="M72.71,438.98l-9.73,5.36c-1.03,0.57-1.66,1.87-1.34,3.1c0.25,0.97,1.08,1.72,3.25,1.76
						c4.81,0.1,26.1-3.45,26.1-3.45v2.86l9.81-0.12c0,0,0.76-14.09-2.25-15.94L72.71,438.98z"/>
					<path class="st2" d="M85.74,430.24l-13.04,8.74c0,0,1.68,4.81,9.11,1.6c7.43-3.21,16.73-8.04,16.73-8.04l-1.36-3.66
						L85.74,430.24z"/>
				</g>
				<polygon class="st2" points="97.19,428.88 107.39,388.35 94.47,389.2 84.5,435.37 				"/>
			</g>
			<g>
				<g>
					<path class="st3" d="M163.42,204.95c0,0,17.64,25.28,17.17,52.91c-0.48,27.64-6.25,158.74-6.25,158.74h-21l-6.65-171.32
						l-2.77-0.17l-37.94,171.55l-19.6-2.08l22.78-155.13c1.56-9.97,4.23-19.74,8.11-29.05c3.32-7.96,7.87-17.02,13.55-24.04
						L163.42,204.95z"/>
					<line class="st4" x1="137.66" y1="246.58" x2="151.09" y2="244.24"/>
				</g>
				<line class="st5" x1="127.01" y1="221.58" x2="120.53" y2="240.22"/>
			</g>
		</g>
		<path class="st6" d="M117.17,98.59c0,0-1.47,14.72-18.17,26.56c-17.81,12.63-4.54,47.58,28.16,45.95
			c35.52-1.77,50.26-47.4,27.09-82.06L117.17,98.59z"/>
		<g>
			<g>
				<path class="st7" d="M142.08,142.01l-21.53,6.05c-6.21,1.75-11.19,8.34-9.31,14.51l19.38,43.86l32.8-1.49l11.53-47.52
					c0.99-6.46-5.71-12.32-12.2-13.06L142.08,142.01z"/>
				<path class="st8" d="M120.55,148.06l21.53-6.05l20.68,2.36l-0.43,0.36C150.53,154.61,133.77,155.95,120.55,148.06L120.55,148.06
					z"/>
			</g>
			<g>
				<g>
					<path class="st8" d="M190.41,200.78l-24.51,21.75l4.29,7.4l28.3-17.25c4.58-2.92,6.67-8.7,4.63-13.73
						c-0.1-0.25-0.21-0.49-0.33-0.74l-3.28-6.84L190.41,200.78z"/>
					<g>
						<path class="st7" d="M182.86,157.78l20.39,34.88c1,2.5-0.32,5.32-2.87,6.16l-9.83,3.26c-1.5,0.5-3.15,0.09-4.23-1.06
							c-3.62-3.85-19.51-15.97-19.01-30.78l-5.65-10.12l1.09-15.76C173.29,145.63,180.9,152.98,182.86,157.78z"/>
						<line class="st9" x1="169.53" y1="180.68" x2="174.09" y2="165.69"/>
					</g>
					<path class="st8" d="M174.09,223.59c-0.54,0.48-3.74,14.72-3.74,14.72l-4.45-15.78L174.09,223.59z"/>
					<line class="st5" x1="165.35" y1="220.7" x2="170.92" y2="240.31"/>
				</g>
			</g>
			<g>
				<g>
					<g>
						<g>
							<path class="st7" d="M103.9,162.32L87.64,199.3c-0.7,2.59,0.92,5.24,3.55,5.79l7.67,1.73c1.55,0.32,2.5,4,3.45,2.73
								c3.15-4.24,20.66-21.99,18.46-36.64l4.45-10.7l-4.68-14.16C110.23,150.53,105.3,157.32,103.9,162.32z"/>
							<line class="st9" x1="119.77" y1="183.54" x2="113.52" y2="169.17"/>
						</g>
					</g>
				</g>
				<g>
					<g>
						<path class="st8" d="M66.14,159.61l-7.64,3.13l30.78,44.03c2.44,4.9,8.8,6.26,13.02,2.78l0,0c3.51-2.89,4.13-8.03,1.4-11.67
							L66.14,159.61z"/>
					</g>
					<g>
						<g>
							<path class="st8" d="M66.49,161.83l1.55-2.31c1.14-1.7,1.63-3.74,1.38-5.77l-0.69-5.65c0,0-0.31-2.99-5.96-1
								c-5.65,1.99-5.98,2.1-5.54,3.81c0,0,1.58,2.16,5.43,1.84L66.49,161.83z"/>
							<path class="st8" d="M59.33,164.27c0,0-6.42-1.94-8.86-11.92c-0.28-1.15,0.06-2.37,0.88-3.22c1.28-1.3,5.03-4.69,7.67-3.61
								l5.15,4.32l2.32,11.98L59.33,164.27z"/>
							<path class="st8" d="M64.63,147.91l-0.3-16.86c-0.02-1-0.84-1.81-1.84-1.81l0,0c-1,0-1.82,0.81-1.83,1.81l-0.18,12.84
								l-1.3,0.55l-7.36-11.36c-0.52-0.8-1.6-1.01-2.37-0.45l0,0c-0.68,0.48-0.9,1.39-0.52,2.13l8.31,16.14L64.63,147.91z"/>
						</g>
						<path class="st10" d="M64.6,146.58c0,0-8.04,0.95-7.38,4.33c0,0,0.37,2.55,5.43,1.84c0,0-2.91,1.54-2.29,5.04"/>
					</g>
				</g>
			</g>
		</g>
		<g>
			<g>
				
					<ellipse transform="matrix(0.6298 -0.7767 0.7767 0.6298 -44.6161 137.6976)" class="st8" cx="122.16" cy="115.66" rx="5.91" ry="5.91"/>
				<path class="st11" d="M118.74,115.11c0,0,2.25-1.34,4.82,2.54"/>
			</g>
			<g>
				<path class="st8" d="M149.57,113.34c0.27,3.26,3.14,5.67,6.39,5.4c3.26-0.27,5.67-3.14,5.4-6.39c-0.27-3.26-3.14-5.67-6.39-5.4
					C151.71,107.23,149.29,110.09,149.57,113.34z"/>
				<path class="st11" d="M158.71,111.64c0,0-2.47-0.87-4.23,3.44"/>
			</g>
			
				<ellipse transform="matrix(0.9965 -0.0841 0.0841 0.9965 -7.9202 11.9172)" class="st6" cx="137.44" cy="99.93" rx="20.35" ry="18.99"/>
			<g>
				<path class="st8" d="M145.49,125.54c0,0-2.35,2.56-4.63,3.33c-2.28,0.77-4.69-0.8-4.72-0.82c-0.03-0.02-2.89-1.81-2.89-1.81
					l0.55,19.49l0.33,0.3c4.31,3.91,10,3.49,13.63-1.01l0.53-0.66L145.49,125.54z"/>
			</g>
			<path class="st12" d="M131.2,123.83c0,0,4.23,11.06,10.05,10.46c4.79-0.5,5.23-11.18,5.23-11.18L131.2,123.83z"/>
			<path class="st8" d="M153.79,101.89c0.57,6.37,0.11,11.96-0.49,15.95c-0.59,3.9-2.96,6.81-6.47,9.29l-0.64,0.45
				c-3.71,2.62-8.76,3.13-12.93,1.29l0,0c-4.2-1.85-7.27-4.52-8.5-8.54c-2.24-7.32-3.15-15.56-3.15-15.56s-2.8-17.13,14.58-18.37
				C153.58,85.15,153.79,101.89,153.79,101.89z"/>
			<g>
				<polyline class="st11" points="137.05,112.18 137.26,114.67 138.96,114.53 				"/>
				<path d="M124.5,104.22l9.11-1.6c0,0-1.02-2.31-4.7-1.61C125.15,101.72,124.5,104.22,124.5,104.22z"/>
				<path d="M149.73,102.09l-9.25-0.05c0,0,0.62-2.45,4.36-2.38C148.68,99.73,149.73,102.09,149.73,102.09z"/>
				<path class="st12" d="M132.1,109.2c0.07,0.78-0.51,1.46-1.29,1.52c-0.78,0.07-1.46-0.51-1.52-1.29
					c-0.07-0.78,0.51-1.46,1.29-1.52C131.35,107.85,132.04,108.42,132.1,109.2z"/>
				<path class="st12" d="M145.88,108.03c0.07,0.78-0.51,1.46-1.29,1.52s-1.46-0.51-1.52-1.29c-0.07-0.78,0.51-1.46,1.29-1.52
					C145.14,106.68,145.82,107.26,145.88,108.03z"/>
				<path class="st13" d="M133.26,118.57c0,0,4.08,1.8,10.19-0.86"/>
			</g>
			<path class="st6" d="M153.46,97.97c0,0-25.47,3.11-25.65-11.96C127.81,86.01,149.54,77.82,153.46,97.97z"/>
			<path class="st6" d="M120.9,100.73c0,0,8.66-4.51,7.88-13.71C128.78,87.02,119.67,88.86,120.9,100.73z"/>
		</g>
	</g>
	<g>
		<g>
			<g>
				<polygon class="st14" points="231.85,407.53 229.91,434.21 218.4,434.6 217.63,401.72 				"/>
				<g>
					<g>
						<g>
							<defs>
								<path id="XMLID_34_" d="M230.44,431.18c0,0-8.04,5.05-12.28-2.71l-31.07,16.49l48.4-0.3L230.44,431.18z"/>
							</defs>
							<use xlink:href="#XMLID_34_"  style="overflow:visible;fill:#DA4412;"/>
							<clipPath id="XMLID_2_">
								<use xlink:href="#XMLID_34_"  style="overflow:visible;"/>
							</clipPath>
						</g>
						
							<rect x="187.1" y="444.82" transform="matrix(1 -6.117781e-03 6.117781e-03 1 -2.7303 1.301)" class="st15" width="48.4" height="4.23"/>
						<path class="st15" d="M214.48,436.54c-0.13-0.05-0.25-0.14-0.34-0.26c-1.88-2.46-3.77-3.68-3.79-3.69
							c-0.37-0.24-0.47-0.72-0.22-1.07c0.25-0.36,0.76-0.44,1.12-0.22c0.09,0.05,2.14,1.37,4.2,4.07c0.26,0.35,0.18,0.83-0.18,1.08
							C215.04,436.62,214.73,436.64,214.48,436.54z"/>
						<path class="st15" d="M210.52,438.52c-0.13-0.05-0.25-0.14-0.34-0.26c-1.88-2.46-3.77-3.68-3.79-3.69
							c-0.37-0.24-0.47-0.72-0.22-1.07c0.25-0.35,0.76-0.45,1.12-0.22c0.09,0.05,2.14,1.37,4.2,4.07c0.26,0.35,0.18,0.83-0.18,1.08
							C211.08,438.6,210.78,438.62,210.52,438.52z"/>
						<path class="st15" d="M206.57,440.5c-0.13-0.05-0.25-0.14-0.34-0.26c-1.88-2.46-3.77-3.68-3.79-3.69
							c-0.37-0.24-0.47-0.72-0.22-1.07c0.25-0.35,0.76-0.45,1.12-0.22c0.09,0.05,2.14,1.37,4.2,4.07c0.26,0.35,0.18,0.83-0.18,1.08
							C207.13,440.58,206.82,440.6,206.57,440.5z"/>
					</g>
				</g>
			</g>
			<g>
				<polygon class="st14" points="263.52,407.53 265.46,434.21 276.97,434.6 277.74,401.72 				"/>
				<g>
					<g>
						<g>
							<defs>
								<path id="XMLID_35_" d="M264.93,431.18c0,0,8.04,5.05,12.28-2.71l31.07,16.49l-48.4-0.3L264.93,431.18z"/>
							</defs>
							<use xlink:href="#XMLID_35_"  style="overflow:visible;fill:#DA4412;"/>
							<clipPath id="XMLID_3_">
								<use xlink:href="#XMLID_35_"  style="overflow:visible;"/>
							</clipPath>
						</g>
						
							<rect x="281.96" y="422.73" transform="matrix(6.117781e-03 -1 1 6.117781e-03 -164.5885 728.2637)" class="st15" width="4.23" height="48.4"/>
						<path class="st15" d="M280.89,436.54c0.13-0.05,0.25-0.14,0.34-0.26c1.88-2.46,3.77-3.68,3.79-3.69
							c0.37-0.24,0.47-0.72,0.22-1.07c-0.25-0.36-0.76-0.44-1.12-0.22c-0.09,0.05-2.14,1.37-4.2,4.07
							c-0.26,0.35-0.18,0.83,0.18,1.08C280.33,436.62,280.64,436.64,280.89,436.54z"/>
						<path class="st15" d="M284.85,438.52c0.13-0.05,0.25-0.14,0.34-0.26c1.88-2.46,3.77-3.68,3.79-3.69
							c0.37-0.24,0.47-0.72,0.22-1.07c-0.25-0.35-0.76-0.45-1.12-0.22c-0.09,0.05-2.14,1.37-4.2,4.07
							c-0.26,0.35-0.18,0.83,0.18,1.08C284.29,438.6,284.59,438.62,284.85,438.52z"/>
						<path class="st15" d="M288.8,440.5c0.13-0.05,0.25-0.14,0.34-0.26c1.88-2.46,3.77-3.68,3.79-3.69
							c0.37-0.24,0.47-0.72,0.22-1.07c-0.25-0.35-0.76-0.45-1.12-0.22c-0.09,0.05-2.14,1.37-4.2,4.07
							c-0.26,0.35-0.18,0.83,0.18,1.08C288.24,440.58,288.55,440.6,288.8,440.5z"/>
					</g>
				</g>
			</g>
			<g>
				<g>
					<path class="st1" d="M277.67,233.74c0,0,3.69,23.23,3.58,104.1l2.62,83.73h-25.29l-3.85-82.88l-5.35-74.01h-9.98v-30.94H277.67
						z"/>
					<path class="st1" d="M218.67,233.74c0,0-3.69,24.16-3.58,105.03l-2.62,82.8h25.29l2.88-82.88l6.32-74.01h9.98v-30.94H218.67z"
						/>
					<line class="st16" x1="236.61" y1="264.68" x2="256" y2="264.68"/>
				</g>
			</g>
		</g>
		<g>
			<g>
				<g>
					<g>
						<g>
							<path class="st14" d="M214.73,220.9l-10.95,50.93l-7.23-0.37c0,0,2.32-31.51,5-52.57c0.43-3.34,4.73-6.07,8.03-5.38l0,0
								C212.66,214.15,215.38,217.81,214.73,220.9z"/>
						</g>
						<path class="st14" d="M202.94,268.46c0,0,3.56,5.58,1.36,12.69l1.63,6.95c0.25,1.08-0.27,2.21-1.23,2.65l0,0
							c-1.04,0.48-2.22-0.02-2.67-1.12l-1.62-3.92l-0.17,1.5c-0.27,2.38,0.21,4.78,1.36,6.81l3.28,5.76
							c0.37,0.66,0.38,1.49,0.02,2.17v0c-0.69,1.31-2.38,1.49-3.25,0.33l-5.2-6.95c-2.01-2.69-2.84-6.21-2.27-9.66l3.08-18.53
							L202.94,268.46z"/>
					</g>
					<polygon class="st14" points="201.54,218.88 207.97,175.35 222.9,180.21 214.58,221.5 					"/>
				</g>
				<path class="st17" d="M224.05,157.28c0,0-10.08,1.2-15.26,14.56c-5.21,13.43-11.57,27.44-11.57,27.44l22.57,12.57L224.05,157.28
					z"/>
			</g>
			<g>
				<g>
					<g>
						<g>
							<path class="st14" d="M290.68,228.22l49.29-26.84l-2.98-10.48c0,0-34.35,14.63-52.99,24.81c-2.96,1.61-3.93,7.59-2.08,10.41
								l0,0C283.65,228.76,288.04,229.95,290.68,228.22z"/>
						</g>
					</g>
					<polygon class="st14" points="294.75,219.07 284.55,175.35 269.62,180.21 281.35,224.96 					"/>
				</g>
				<path class="st17" d="M270.38,156.93c0,0,10.91,1.29,16.45,14.9c5.44,13.34,10.84,25.65,10.84,25.65l-21.74,13.47L270.38,156.93
					z"/>
			</g>
			<g>
				<path class="st17" d="M275.44,158.97c-3.87-2.4-10.16-3-10.16-3l-17.48,1.76l-17.48-1.76c0,0-6.29,0.6-10.16,3l-0.14,40.26
					l-7.81,55.34l71.65,0.39l-8.22-55.01L275.44,158.97z"/>
				<g>
					<path class="st14" d="M224.05,157.28l20.6-5.41h7.1l18.63,5.07l0,0c-9.53,8.93-33.17,16.25-45.27,0.76L224.05,157.28z"/>
					<polyline class="st18" points="218.53,210.96 219.78,198.07 218.3,178.71 					"/>
					<polyline class="st18" points="276.92,209.97 275.77,198.07 277.68,178.53 					"/>
				</g>
			</g>
		</g>
		<g>
			<path class="st19" d="M278.41,138.73c-0.2-1.66-0.07-3.36,0.35-4.95c2.12-8.11-0.3-15.02-4.58-20.19
				c-3.87-4.67-4.83-11.58-4.83-11.58l0,0c-2.84-9.36-12.46-15.85-21.22-15.85c-8.76,0-18.35,6.12-21.19,15.48l0,0
				c0,0-1.28,7.41-4.86,11.96c-4.14,5.26-6.7,12.07-4.58,20.19c0.42,1.6,0.55,3.3,0.35,4.95c-0.15,1.22-0.48,2.49-1.18,3.37h62.93
				C278.89,141.23,278.55,139.96,278.41,138.73z"/>
			<g>
				<path class="st14" d="M237.21,120.93c0.1,3.4-2.58,6.24-5.98,6.33c-3.4,0.1-6.24-2.58-6.33-5.98c-0.1-3.4,2.58-6.24,5.98-6.33
					C234.28,114.84,237.11,117.52,237.21,120.93z"/>
				<path class="st20" d="M227.55,120.23c0,0,2.45-1.19,4.78,3.06"/>
			</g>
			<g>
				<circle class="st14" cx="265.87" cy="121.1" r="6.16"/>
				<path class="st20" d="M269.34,120.13c0,0-2.48-1.12-4.7,3.2"/>
			</g>
			
				<ellipse transform="matrix(0.2317 -0.9728 0.9728 0.2317 84.3733 325.5604)" class="st19" cx="248.29" cy="109.37" rx="19.35" ry="19.35"/>
			<g>
				<path class="st14" d="M254.41,133.4c0,0-2.67,2.45-5.1,3.05c-2.43,0.6-4.8-1.24-4.83-1.26c-0.03-0.02-2.84-2.13-2.84-2.13
					l-1.14,20.28l0.32,0.34c4.13,4.43,10.07,4.5,14.24,0.15l0.61-0.64L254.41,133.4z"/>
			</g>
			<path class="st12" d="M239.72,130.37c0,0,3.42,11.85,9.52,11.73c5.02-0.1,6.41-11.14,6.41-11.14L239.72,130.37z"/>
			<path class="st14" d="M265.09,109.58c0.03,6.67-0.93,12.42-1.9,16.51c-0.95,4-3.67,6.81-7.53,9.08l-0.7,0.41
				c-4.08,2.4-9.36,2.48-13.53,0.21h0c-4.2-2.29-7.15-5.32-8.07-9.61c-1.68-7.79-1.9-16.43-1.9-16.43s-1.4-18.03,16.74-17.79
				C266.33,92.19,265.09,109.58,265.09,109.58z"/>
			<g>
				<g>
					<polyline class="st20" points="246.81,119.45 246.81,122.09 248.59,122.09 					"/>
					<path d="M234.49,109.43l9.59-0.86c0,0-0.86-2.49-4.74-2.08C235.37,106.9,234.49,109.43,234.49,109.43z"/>
					<path d="M260.86,109.43l-9.59-0.86c0,0,0.86-2.49,4.74-2.08C259.97,106.9,260.86,109.43,260.86,109.43z"/>
					<path class="st15" d="M242.46,124.53h10.48c0,0-0.4,2.73-5.43,2.73C243.39,127.26,242.46,124.53,242.46,124.53z"/>
					<path class="st21" d="M242.95,115.9c0,0-2.48-2.03-4.66,0"/>
					<path class="st21" d="M256.97,115.9c0,0-1.94-2.08-4.54,0"/>
				</g>
				<g>
					<path class="st22" d="M238.3,109.27l7.03,9.55c0,0-2.12,4.05-5.5,3.6l-7.1-9.31C232.74,113.1,234.65,109.01,238.3,109.27z"/>
					<path class="st22" d="M255.6,109.27l7.03,9.55c0,0-2.12,4.05-5.5,3.6l-7.1-9.31C250.03,113.1,251.95,109.01,255.6,109.27z"/>
					<path class="st23" d="M245.89,115.9c0,3.8-3.08,6.88-6.88,6.88c-3.8,0-6.88-3.08-6.88-6.88c0-3.8,3.08-6.88,6.88-6.88
						C242.81,109.02,245.89,112.1,245.89,115.9z"/>
					<path class="st23" d="M263.2,115.9c0,3.8-3.08,6.88-6.88,6.88c-3.8,0-6.88-3.08-6.88-6.88c0-3.8,3.08-6.88,6.88-6.88
						C260.13,109.02,263.2,112.1,263.2,115.9z"/>
					<path class="st23" d="M245.89,115.9c0,0,1.96-0.72,3.56,0"/>
				</g>
			</g>
			<path class="st19" d="M229.7,105.48c0,0,16.17-3.08,19.51-15.15C249.21,90.33,232.01,84.23,229.7,105.48z"/>
			<path class="st19" d="M265.09,105.48c0,0-16.17-3.08-19.51-15.15C245.58,90.33,262.78,84.23,265.09,105.48z"/>
		</g>
	</g>
	<g>
		<g>
			<g>
				<g>
					<g>
						<polygon class="st6" points="471.87,425.46 453.85,425.46 424.05,441.4 475.29,440.79 						"/>
						<g>
							<path class="st12" d="M462.73,444.47c1.69,0,3.06,1.42,3.1,3.17l9.65-0.11l-0.18-6.74l-51.24,0.61l0.18,6.74l35.39-0.43
								v-0.01C459.63,445.92,461.01,444.47,462.73,444.47z"/>
						</g>
						<line class="st24" x1="441.4" y1="431.33" x2="447.3" y2="432.94"/>
						<line class="st24" x1="447.17" y1="428.37" x2="453.07" y2="429.98"/>
					</g>
					<rect x="453.51" y="400.05" class="st25" width="18.37" height="25.41"/>
				</g>
				<g>
					<g>
						<polygon class="st6" points="504.34,425.46 522.36,425.46 552.16,441.4 500.92,440.79 						"/>
						<g>
							<path class="st12" d="M513.48,444.47c-1.69,0-3.06,1.42-3.1,3.17l-9.65-0.11l0.18-6.74l51.24,0.61l-0.18,6.74l-35.39-0.43
								v-0.01C516.59,445.92,515.2,444.47,513.48,444.47z"/>
						</g>
						<line class="st24" x1="534.81" y1="431.33" x2="529.83" y2="433.86"/>
						<line class="st24" x1="529.04" y1="428.37" x2="524.97" y2="429.98"/>
					</g>
					<polygon class="st25" points="520.74,400.05 502.37,400.05 504.34,425.46 522.7,425.46 					"/>
				</g>
				<g>
					<path class="st17" d="M514.25,208.36c1.38,14.73,12.42,209.77,12.42,209.77H498l-12.57-173.24l-5.17,0.1l-3.34,173.14h-27.4
						c0,0-1.56-180.97,0.11-209.31L514.25,208.36z"/>
					<line class="st18" x1="473.03" y1="245.02" x2="494.04" y2="245.02"/>
				</g>
			</g>
			<g>
				<path class="st6" d="M470.79,48.83c0,0,7.94-10.75,22.01-3.58c15.43,7.86,7.09,24.81,7.09,24.81l-33.15-6.28L470.79,48.83z"/>
				<path class="st6" d="M464.16,70.15c0,0-8.67-17.03,6.63-21.32l2.75,9.13L464.16,70.15z"/>
				<g>
					<path class="st14" d="M471.51,78.01c0.1,3.4-2.58,6.24-5.98,6.33c-3.4,0.1-6.24-2.58-6.33-5.98c-0.1-3.4,2.58-6.24,5.98-6.33
						C468.58,71.93,471.42,74.61,471.51,78.01z"/>
					<path class="st20" d="M461.86,77.32c0,0,2.45-1.19,4.78,3.06"/>
				</g>
				<g>
					<path class="st14" d="M494.01,78.18c0,3.4,2.76,6.16,6.16,6.16c3.4,0,6.16-2.76,6.16-6.16c0-3.4-2.76-6.16-6.16-6.16
						C496.77,72.02,494.01,74.78,494.01,78.18z"/>
					<path class="st20" d="M503.64,77.22c0,0-2.48-1.12-4.7,3.2"/>
				</g>
				<g>
					<path class="st14" d="M490.67,92.38c0,0-3.47,2.45-6.64,3.06c-3.17,0.6-6.24-1.23-6.28-1.25c-0.04-0.02-3.7-2.13-3.7-2.13
						l-1.51,20.28l0.41,0.34c5.37,4.43,13.1,4.48,18.53,0.13l0.79-0.64L490.67,92.38z"/>
				</g>
				<path class="st12" d="M472.54,89.92c0,0,3.45,11.3,11.4,11.17c6.53-0.1,7.58-11.17,7.58-11.17H472.54z"/>
				<path class="st14" d="M499.4,67.46c0.04,6.96-0.93,12.98-1.9,17.25c-0.95,4.18-4.63,7.11-8.48,9.48l-0.7,0.43
					c-4.08,2.51-7.45,2.59-11.62,0.22l0,0c-4.2-2.39-8.11-5.56-9.03-10.04c-1.68-8.14-1.91-17.17-1.91-17.17
					s-2.37-18.84,15.78-18.59C499.68,49.29,499.4,67.46,499.4,67.46z"/>
				<g>
					<path class="st12" d="M476.22,72.98c0,0.81-0.66,1.47-1.47,1.47c-0.81,0-1.47-0.66-1.47-1.47c0-0.81,0.66-1.47,1.47-1.47
						C475.56,71.51,476.22,72.17,476.22,72.98z"/>
					<path class="st12" d="M490.63,72.98c0,0.81-0.66,1.47-1.47,1.47c-0.81,0-1.47-0.66-1.47-1.47c0-0.81,0.66-1.47,1.47-1.47
						C489.97,71.51,490.63,72.17,490.63,72.98z"/>
					<polyline class="st20" points="480.62,76.82 480.62,79.18 482.53,79.18 					"/>
					<path d="M469.28,66.78l9.59-0.86c0,0-0.86-2.49-4.74-2.08C470.17,64.24,469.28,66.78,469.28,66.78z"/>
					<path d="M494.01,66.78l-9.59-0.86c0,0,0.86-2.49,4.74-2.08C493.12,64.24,494.01,66.78,494.01,66.78z"/>
					<path class="st15" d="M477.34,82.53h9.46c0,0-0.44,2.9-4.87,2.9C477.5,85.43,477.34,82.53,477.34,82.53z"/>
				</g>
				<g>
					<path class="st6" d="M466.37,76.54c0,0,0.71-23.07,0.42-23.73C466.79,52.81,458.61,60.37,466.37,76.54z"/>
					<path class="st6" d="M498.71,76.38l-1.23-25.05C497.49,51.32,505.35,59.14,498.71,76.38z"/>
				</g>
				<path class="st6" d="M473.97,50.77c0,0-5.63,1.52-5.44,7.05c0.19,5.53-3.55,10.96-3.55,10.96l-1.71-5.52
					C463.28,63.25,461.96,52.96,473.97,50.77z"/>
				<path class="st6" d="M472.55,51.22c0,0,4.21-2.39,8.4,2.87c3.57,4.49,12.99,9.12,18.57,4.72c0,0-3.55-12.72-17.42-12.46
					C468.24,46.61,472.55,51.22,472.55,51.22z"/>
			</g>
			<g>
				<path class="st26" d="M452.91,120.03c-27.94,13.99-50.97,40.04-50.97,40.04l15,18.07l42.25-26.84L452.91,120.03z"/>
				<g>
					<g>
						<g>
							<polygon class="st14" points="528.88,227.87 537.29,249.3 543.79,248.61 538.86,220.89 							"/>
						</g>
						<path class="st14" d="M536.97,245.93c0,0-3.33,6.01-0.6,13.23l-1.24,7.3c-0.19,1.13,0.42,2.27,1.44,2.66l0,0
							c1.1,0.43,2.3-0.16,2.7-1.33l1.43-4.17l0.27,1.54c0.43,2.45,0.09,4.97-0.97,7.14l-3.03,6.18c-0.34,0.7-0.3,1.56,0.11,2.24l0,0
							c0.8,1.32,2.56,1.39,3.38,0.13l4.94-7.53c1.91-2.92,2.54-6.62,1.73-10.15l-4.38-18.99L536.97,245.93z"/>
					</g>
					<path class="st26" d="M509.53,119.2c0,0,9.84,2.48,15.08,17.25c10.5,29.6,21.39,108.93,21.39,108.93l-18.8,3.54L500.85,147.3
						L509.53,119.2z"/>
				</g>
				<g>
					<g>
						<g>
							<path class="st26" d="M503.4,116.47l8.43,3.75c3.41,1.52,5.62,4.9,5.63,8.64l0.3,91.45h-70.66v-91.52
								c0-3.82,2.29-7.27,5.82-8.75l8.6-3.61L503.4,116.47z"/>
						</g>
						<g>
							<path class="st14" d="M482.96,107.61l20.44,8.86c0,0-21,18.98-41.88-0.04L482.96,107.61z"/>
							<path class="st27" d="M461.51,116.42c0,0,7.28,8.61,20.89,8.61s20.99-8.57,20.99-8.57"/>
						</g>
					</g>
					<line class="st18" x1="517.72" y1="209.89" x2="517.52" y2="149.09"/>
					<line class="st18" x1="447.09" y1="158.99" x2="447.09" y2="148.79"/>
				</g>
			</g>
		</g>
		<g>
			<g>
				<path class="st12" d="M370.98,74.83c0,0,9.08-4.05,12.3,3.6c3.1,7.36-9.21,14.38-9.21,14.38L370.98,74.83z"/>
				<g>
					<path class="st28" d="M354,105.37c0.1,3.4-2.58,6.24-5.98,6.33c-3.4,0.1-6.24-2.58-6.33-5.98c-0.1-3.4,2.58-6.24,5.98-6.33
						S353.9,101.96,354,105.37z"/>
					<path class="st29" d="M344.34,104.67c0,0,2.45-1.19,4.78,3.06"/>
				</g>
				<g>
					<circle class="st28" cx="382.65" cy="105.54" r="6.16"/>
					<path class="st29" d="M386.12,104.58c0,0-2.48-1.12-4.7,3.2"/>
				</g>
				<g>
					<path class="st28" d="M373.15,119.74c0,0-3.47,2.45-6.64,3.06c-3.17,0.6-6.24-1.23-6.28-1.25s-3.7-2.13-3.7-2.13l-1.51,20.28
						l0.41,0.34c5.37,4.43,13.1,4.48,18.53,0.13l0.79-0.64L373.15,119.74z"/>
				</g>
				<path class="st12" d="M355.02,117.28c0,0,3.45,11.3,11.4,11.17c6.53-0.1,7.58-11.17,7.58-11.17H355.02z"/>
				<path class="st28" d="M381.88,94.81c0.04,6.96-0.93,12.98-1.9,17.25c-0.95,4.18-3.67,7.11-7.53,9.48l-0.7,0.43
					c-4.08,2.51-9.36,2.59-13.53,0.22l0,0c-4.2-2.39-7.15-5.56-8.08-10.04c-1.68-8.14-1.91-17.17-1.91-17.17
					s-2.37-18.84,15.78-18.59C382.16,76.65,381.88,94.81,381.88,94.81z"/>
				<g>
					<circle class="st12" cx="357.23" cy="100.34" r="1.47"/>
					<circle class="st12" cx="371.64" cy="100.34" r="1.47"/>
					<polyline class="st29" points="363.11,102.48 363.11,106.53 365.72,106.53 					"/>
					<path d="M351.76,94.13l9.59-0.86c0,0-0.86-2.49-4.74-2.08C352.65,91.6,351.76,94.13,351.76,94.13z"/>
					<path d="M376.49,94.13l-9.59-0.86c0,0,0.86-2.49,4.74-2.08C375.6,91.6,376.49,94.13,376.49,94.13z"/>
					<path class="st15" d="M359.82,109.89h9.46c0,0-0.44,2.9-4.87,2.9C359.99,112.79,359.82,109.89,359.82,109.89z"/>
				</g>
				<g>
					<path class="st12" d="M348.86,103.9c0,0,2.69-20.37,1.37-23.73C350.23,80.17,341.09,87.73,348.86,103.9z"/>
					<path class="st12" d="M381.2,103.74c0,0-3.02-19.46-2.18-25.05C379.01,78.68,387.84,86.5,381.2,103.74z"/>
				</g>
				<path class="st12" d="M378.38,77.29l-8.37-1.27l-0.74-1.45l-4.42,0.67l-4.42-0.67l-0.74,1.45l-8.37,1.27l-1.12,4.48l0.28,5.16
					c0,0,1.32-5.85,5.93-4.69c1.09,0.27,2.39,0.73,3.91,1.04c1.42,0.31,2.78,0.45,4.05,0.47c0.15,0,0.31,0,0.46,0
					c0.15,0,0.31,0,0.46,0c1.28-0.02,2.63-0.16,4.05-0.47c1.52-0.31,2.85-0.67,3.91-1.04c4.27-1.49,5.85,4.42,5.85,4.42l0.36-4.89
					L378.38,77.29z"/>
				<path class="st12" d="M378.21,82.39c0,0-5.44,4.86-12.41,1.12c0,0-17.73,10.92-22.74-0.97c-4.17-9.91,13.15-23.37,31.02-8.21
					L378.21,82.39z"/>
			</g>
			<g>
				<g>
					<polygon class="st28" points="386.4,393.64 389.27,429.32 405.04,429.81 405.08,387.5 					"/>
					<g>
						<g>
							<g>
								<defs>
									<path id="XMLID_30_" d="M388.97,425.54c0,0,10.93,6.37,16.38-3.61l39.99,21.23l-62.29-0.38L388.97,425.54z"/>
								</defs>
								<use xlink:href="#XMLID_30_"  style="overflow:visible;fill:#101010;"/>
								<clipPath id="XMLID_4_">
									<use xlink:href="#XMLID_30_"  style="overflow:visible;"/>
								</clipPath>
								<path class="st30" d="M438.22,430.5c0,0-15.38,2.3-14.19,21.42l26.61-7.29L438.22,430.5z"/>
							</g>
							
								<rect x="411.46" y="414.54" transform="matrix(6.116399e-03 -1 1 6.116399e-03 -34.0273 857.1353)" class="st15" width="5.45" height="62.29"/>
							<path class="st15" d="M410.09,432.31c0.17-0.07,0.32-0.18,0.43-0.33c2.42-3.17,4.85-4.74,4.88-4.75
								c0.48-0.3,0.61-0.92,0.29-1.38c-0.32-0.46-0.98-0.57-1.45-0.28c-0.11,0.07-2.75,1.76-5.41,5.24
								c-0.34,0.45-0.23,1.07,0.23,1.39C409.37,432.42,409.77,432.45,410.09,432.31z"/>
							<path class="st15" d="M415.18,434.86c0.17-0.07,0.32-0.18,0.43-0.33c2.42-3.17,4.85-4.74,4.88-4.75
								c0.48-0.3,0.61-0.92,0.29-1.38c-0.32-0.46-0.98-0.57-1.45-0.28c-0.11,0.07-2.75,1.76-5.41,5.24
								c-0.34,0.45-0.23,1.07,0.23,1.39C414.46,434.96,414.86,434.99,415.18,434.86z"/>
							<path class="st15" d="M420.27,437.4c0.17-0.07,0.32-0.18,0.43-0.33c2.42-3.17,4.85-4.74,4.88-4.75
								c0.48-0.3,0.61-0.92,0.29-1.38c-0.32-0.46-0.98-0.57-1.45-0.28c-0.11,0.07-2.75,1.76-5.41,5.24
								c-0.34,0.44-0.23,1.07,0.23,1.39C419.55,437.51,419.94,437.54,420.27,437.4z"/>
						</g>
					</g>
				</g>
				<g>
					<polygon class="st28" points="350.3,393.64 351.26,429.32 335.49,429.81 331.63,387.5 					"/>
					<g>
						<g>
							<g>
								<defs>
									<path id="XMLID_31_" d="M351.29,425.54c0,0-10.93,6.37-16.38-3.61l-39.99,21.23l62.29-0.38L351.29,425.54z"/>
								</defs>
								<use xlink:href="#XMLID_31_"  style="overflow:visible;fill:#101010;"/>
								<clipPath id="XMLID_5_">
									<use xlink:href="#XMLID_31_"  style="overflow:visible;"/>
								</clipPath>
								<path class="st31" d="M302.04,430.5c0,0,15.38,2.3,14.19,21.42l-26.61-7.29L302.04,430.5z"/>
							</g>
							
								<rect x="294.93" y="442.96" transform="matrix(1 -6.116389e-03 6.116389e-03 1 -2.7199 2.0028)" class="st15" width="62.29" height="5.45"/>
							<path class="st15" d="M330.17,432.31c-0.17-0.07-0.32-0.18-0.43-0.33c-2.42-3.17-4.85-4.74-4.88-4.75
								c-0.48-0.3-0.61-0.92-0.29-1.38c0.32-0.46,0.98-0.57,1.45-0.28c0.11,0.07,2.75,1.76,5.41,5.24c0.34,0.45,0.23,1.07-0.23,1.39
								C330.89,432.42,330.5,432.45,330.17,432.31z"/>
							<path class="st15" d="M325.08,434.86c-0.17-0.07-0.32-0.18-0.43-0.33c-2.42-3.17-4.85-4.74-4.88-4.75
								c-0.48-0.3-0.61-0.92-0.29-1.38c0.32-0.46,0.98-0.57,1.45-0.28c0.11,0.07,2.75,1.76,5.41,5.24c0.34,0.45,0.23,1.07-0.23,1.39
								C325.8,434.96,325.41,434.99,325.08,434.86z"/>
							<path class="st15" d="M319.99,437.4c-0.17-0.07-0.32-0.18-0.43-0.33c-2.42-3.17-4.85-4.74-4.88-4.75
								c-0.48-0.3-0.61-0.92-0.29-1.38c0.32-0.46,0.98-0.57,1.45-0.28c0.11,0.07,2.75,1.76,5.41,5.24c0.34,0.44,0.23,1.07-0.23,1.39
								C320.71,437.51,320.32,437.54,319.99,437.4z"/>
						</g>
					</g>
				</g>
				<g>
					<g>
						<path class="st7" d="M367.58,256.09l14,154.95h27.84l-10.5-185.24l-34.53-3.05l-28.57-1.41l-11.55,98.12
							c-0.94,8.97,6.2,16.73,15.22,16.54h0c7.08-0.15,13.09-5.23,14.41-12.19L367.58,256.09z"/>
					</g>
					<line class="st18" x1="355.13" y1="254.58" x2="373.06" y2="256.86"/>
					<polygon class="st32" points="415.02,413.76 378.32,413.76 376.55,397.13 413.25,397.13 					"/>
					<polygon class="st7" points="353.91,323.81 355.61,408.66 326.24,408.66 324.27,319.46 					"/>
					<rect x="322.48" y="397.13" class="st32" width="36.69" height="16.63"/>
				</g>
			</g>
			<g>
				<g>
					<g>
						<path class="st3" d="M395.55,147.72l-20.8-8.2l-19.73,0.17L329,151.87c-2.04,1.22-1.65,3.69-0.91,5.95l5.88,69.54l65.25-0.9
							l4.25-70.66C404.03,153.48,397.7,148.77,395.55,147.72z"/>
					</g>
					<path class="st28" d="M355.02,139.69l-5.81,2.67c0,0-0.06,9.75,15.73,9.24c16.2-0.52,16.16-9.7,16.16-9.7l-6.35-2.39
						L355.02,139.69z"/>
				</g>
				<g>
					<g>
						<polygon class="st28" points="429.88,191.17 386.01,170.22 407.76,157.28 427.24,169.34 						"/>
						<g>
							<path class="st28" d="M421.74,122.89l8.49-3.05l15.03,59.24c2.11,6.34-2.23,13-8.88,13.63l0,0c-5.53,0.52-10.5-3.4-11.28-8.9
								L421.74,122.89z"/>
							<g>
								<path class="st28" d="M421.74,122.89l-4.05-4.47c-2.11-2.33-3.65-5.13-4.48-8.16l-1.47-5.34c-0.35-1.27,0.53-2.55,1.84-2.68
									l0,0c1.11-0.11,2.17,0.46,2.69,1.44l2.74,5.21l0.76-23.01c0.01-0.99,0.89-1.75,1.88-1.61l0.66,0.09
									c0.78,0.11,1.37,0.75,1.42,1.53l-0.02,13.64l2.19-15.67c0.08-0.99,1-1.68,1.97-1.49l0.48,0.1c0.82,0.16,1.38,0.91,1.32,1.74
									l-1.8,16.37l3.85-12.81c0.28-1.02,1.43-1.51,2.36-1.02l0.19,0.1c0.64,0.34,0.98,1.05,0.85,1.76l-2.56,13.8l2.63-8.13
									c0.37-1.16,1.83-1.52,2.71-0.69l0,0c0.42,0.4,0.6,0.99,0.47,1.55l-6.82,30.51L421.74,122.89z"/>
								<path class="st29" d="M419,108.88c0,0,4.44,1.03,6.77,6.25"/>
							</g>
							<line class="st29" x1="424.12" y1="168.33" x2="425.02" y2="179.61"/>
						</g>
					</g>
					<g>
						<path class="st3" d="M392.65,146.74c16.28,4.94,27.53,18.24,27.53,18.24l-12.24,24.29l-28.1-13.04L392.65,146.74z"/>
						<line class="st18" x1="401.64" y1="186.34" x2="393.65" y2="182.64"/>
					</g>
				</g>
				<g>
					<g>
						<g>
							<g>
								<path class="st28" d="M316.21,174.4l-9.9,35.64c-1.12,5.67,5.58,12.09,11.01,13.54l0,0c5.37,1.42,4.23-2.78,5.64-8.3
									l13.49-33.72L316.21,174.4z"/>
							</g>
							<g>
								<g>
									<path class="st28" d="M307.27,214.17c1.75,7.28,24.75,23.34,24.75,23.34l13.18,0.12l-23.92-33.05L307.27,214.17z"/>
								</g>
								<path class="st28" d="M349.29,241.12c0,0,3.36,1.69,6.66,1.02c1.82-0.37,2.15-2.85,0.49-3.7
									c-4.31-2.22-13.37-7.39-16.95-8.69l-6.22-1.73l-5.86,5.82l4.6,3.67c0,0,1.11,5.83,3.35,7.81
									C335.38,245.32,345.11,246.83,349.29,241.12z"/>
							</g>
							<line class="st29" x1="325.13" y1="209.89" x2="321.29" y2="204.58"/>
						</g>
						<g>
							<path class="st3" d="M329,151.87c0,0-16.4,5.48-19.79,34.61l32.46,9.67l9.03-28.17L329,151.87z"/>
							<line class="st18" x1="331.42" y1="193.71" x2="329.96" y2="177.53"/>
						</g>
					</g>
					<path class="st14" d="M341.56,146c0,0-3.31,1.77-0.71,6.91l0,0c1.47,2.92,0.5,6.48-2.25,8.25l-5.72,3.68
						c-3.19,2.05-7.5,0.9-9.17-2.51c-1.12-2.3-1.84-4.91-0.98-7.15C324.79,149.78,336.86,143.58,341.56,146z"/>
				</g>
			</g>
		</g>
	</g>
	<g>
		<g>
			<g>
				<g>
					<polygon class="st33" points="609.86,408.84 609.86,433.59 621.37,433.98 622.14,401.1 					"/>
					<g>
						<g>
							<g>
								<defs>
									<path id="XMLID_32_" d="M609.33,430.56c0,0,8.04,5.05,12.28-2.71l31.07,16.49l-48.4-0.3L609.33,430.56z"/>
								</defs>
								<use xlink:href="#XMLID_32_"  style="overflow:visible;fill:#101010;"/>
								<clipPath id="XMLID_6_">
									<use xlink:href="#XMLID_32_"  style="overflow:visible;"/>
								</clipPath>
								<path class="st34" d="M647.15,434.51c0,0-11.95,1.79-11.03,16.64l20.68-5.67L647.15,434.51z"/>
							</g>
							
								<rect x="626.35" y="422.11" transform="matrix(6.117781e-03 -1 1 6.117781e-03 178.3218 1072.0348)" class="st15" width="4.23" height="48.4"/>
							<path class="st15" d="M625.29,435.92c0.13-0.05,0.25-0.14,0.34-0.26c1.88-2.46,3.77-3.68,3.79-3.69
								c0.37-0.24,0.47-0.72,0.22-1.07c-0.25-0.36-0.76-0.44-1.12-0.22c-0.09,0.05-2.14,1.37-4.2,4.07
								c-0.26,0.35-0.18,0.83,0.18,1.08C624.73,436,625.03,436.02,625.29,435.92z"/>
							<path class="st15" d="M629.24,437.9c0.13-0.05,0.25-0.14,0.34-0.26c1.88-2.46,3.77-3.68,3.79-3.69
								c0.37-0.24,0.47-0.72,0.22-1.07c-0.25-0.35-0.76-0.45-1.12-0.21c-0.09,0.05-2.14,1.37-4.2,4.07
								c-0.26,0.35-0.18,0.83,0.18,1.08C628.69,437.98,628.99,438,629.24,437.9z"/>
							<path class="st15" d="M633.2,439.87c0.13-0.05,0.25-0.14,0.34-0.26c1.88-2.46,3.77-3.68,3.79-3.69
								c0.37-0.24,0.47-0.72,0.22-1.07c-0.25-0.35-0.76-0.45-1.12-0.21c-0.09,0.05-2.14,1.37-4.2,4.07
								c-0.26,0.34-0.18,0.83,0.18,1.08C632.64,439.96,632.94,439.98,633.2,439.87z"/>
						</g>
					</g>
				</g>
				<g>
					<path class="st19" d="M615.97,221.34c0,0,20.55,24.36,13.93,89.48l-5.29,108.62h-16.7l-10.96-198.1H615.97z"/>
				</g>
			</g>
			<g>
				<g>
					<polygon class="st33" points="586.75,408.84 586.75,433.59 575.24,433.98 574.47,401.1 					"/>
					<g>
						<g>
							<g>
								<defs>
									<path id="XMLID_33_" d="M587.28,430.56c0,0-8.04,5.05-12.28-2.71l-31.07,16.49l48.4-0.3L587.28,430.56z"/>
								</defs>
								<use xlink:href="#XMLID_33_"  style="overflow:visible;fill:#101010;"/>
								<clipPath id="XMLID_7_">
									<use xlink:href="#XMLID_33_"  style="overflow:visible;"/>
								</clipPath>
								<path class="st35" d="M549.46,434.51c0,0,11.95,1.79,11.03,16.64l-20.68-5.67L549.46,434.51z"/>
							</g>
							
								<rect x="543.94" y="444.19" transform="matrix(1 -6.117781e-03 6.117781e-03 1 -2.7198 3.4841)" class="st15" width="48.4" height="4.23"/>
							<path class="st15" d="M571.31,435.92c-0.13-0.05-0.25-0.14-0.34-0.26c-1.88-2.46-3.77-3.68-3.79-3.69
								c-0.37-0.24-0.47-0.72-0.22-1.07c0.25-0.36,0.76-0.44,1.12-0.22c0.09,0.05,2.14,1.37,4.2,4.07c0.26,0.35,0.18,0.83-0.18,1.08
								C571.87,436,571.57,436.02,571.31,435.92z"/>
							<path class="st15" d="M567.36,437.9c-0.13-0.05-0.25-0.14-0.34-0.26c-1.88-2.46-3.77-3.68-3.79-3.69
								c-0.37-0.24-0.47-0.72-0.22-1.07c0.25-0.35,0.76-0.45,1.12-0.21c0.09,0.05,2.14,1.37,4.2,4.07c0.26,0.35,0.18,0.83-0.18,1.08
								C567.92,437.98,567.61,438,567.36,437.9z"/>
							<path class="st15" d="M563.41,439.87c-0.13-0.05-0.25-0.14-0.34-0.26c-1.88-2.46-3.77-3.68-3.79-3.69
								c-0.37-0.24-0.47-0.72-0.22-1.07c0.25-0.35,0.76-0.45,1.12-0.21c0.09,0.05,2.14,1.37,4.2,4.07c0.26,0.34,0.18,0.83-0.18,1.08
								C563.96,439.96,563.66,439.98,563.41,439.87z"/>
						</g>
					</g>
				</g>
				<path class="st19" d="M579.48,221.34c0,0-20.55,24.36-13.93,89.48l5.29,108.62h18.53l9.13-198.1H579.48z"/>
			</g>
			<g>
				<rect x="580.95" y="234.64" class="st19" width="32.11" height="32.12"/>
				<line class="st18" x1="601.7" y1="266.76" x2="586.89" y2="265.84"/>
			</g>
		</g>
		<g>
			<g>
				<g>
					<path class="st36" d="M677.02,148.42l7.26,2.28l-15.36,47.84c-1.82,5.34-8.13,7.59-12.92,4.62l0,0
						c-3.98-2.47-5.32-7.64-3.03-11.73L677.02,148.42z"/>
					<g>
						<path class="st36" d="M677.32,146.83l0.58-1.89c0.78-2.54,2.14-4.86,3.98-6.78l3.24-3.38c0.77-0.8,2.08-0.72,2.74,0.17l0,0
							c0.56,0.75,0.61,1.77,0.12,2.57l-2.59,4.24l15.01-8.21c0.73-0.42,1.66-0.11,1.98,0.66l0.22,0.52c0.26,0.61,0.05,1.32-0.5,1.69
							l-9.9,5.89l12.31-5.19c0.75-0.37,1.65,0,1.93,0.78l0.14,0.39c0.23,0.66-0.06,1.4-0.69,1.71l-10.62,5.2l8.93-2.17
							c0.86-0.24,1.71,0.38,1.76,1.27l0.01,0.18c0.03,0.61-0.33,1.17-0.91,1.38l-9.12,2.92l5.03-0.42c1-0.23,1.9,0.66,1.67,1.66l0,0
							c-0.11,0.48-0.46,0.86-0.92,1.01l-23.07,7.06l-1.42-5.28C676.69,150.85,676.72,148.77,677.32,146.83z"/>
						<path class="st37" d="M685.38,141.76c0,0,1.18,3.67-1.6,7.61"/>
					</g>
				</g>
				<path class="st1" d="M624.39,150.9c0,0,12.44,3.15,31.33,32.17L664.5,158l20.05,8.98l-13.57,36.4
					c-3.55,9.51-15.64,12.42-23.06,5.49c-5.96-5.56-25.02-26.65-28.86-33.79L624.39,150.9z"/>
			</g>
			<g>
				<g>
					<path class="st36" d="M562.78,217.07c0,0,9.51,2.68,4.46,12.98c-4.55,9.28-12.45,11.22-19.02,9.66
						c-1.12-0.27-1.67-1.53-1.18-2.56l0,0c0.31-0.65,0.97-1.06,1.69-1.05c2.37,0.05,6.61-0.34,7.78-3.53
						c1.53-4.15-0.64-8.71,1.77-12.99L562.78,217.07z"/>
					<polygon class="st36" points="562.78,217.07 557.06,207.6 548.64,212.33 558.92,223.54 					"/>
				</g>
				<path class="st1" d="M562.71,155.1c0,0-16.14,7.96-36.15,28.34c-2.04,2.07-2.85,5.1-2.01,7.89c1.53,5.1,6.74,13.61,23.04,24.74
					l14.16-7.21l-12.37-16.48l23.66-9.81L562.71,155.1z"/>
			</g>
			<g>
				<polygon class="st15" points="626.58,236.97 570.79,237.62 577.21,151.66 620.28,151.66 				"/>
				<path class="st1" d="M570.14,151.66l-7.43,3.44c0,0,10.99,40-4.92,101.62l13.75,3.18c0,0,14.87-44.63,13.52-104.81
					L570.14,151.66z"/>
				<path class="st1" d="M625.97,151.79l3.46,1.6c2.28,1.05,3.53,3.51,3.05,5.97c-2.27,11.7-7.08,47.47,5.84,97.49l-13.75,3.18
					c0,0-14.87-44.63-13.52-104.81L625.97,151.79z"/>
			</g>
		</g>
		<g>
			<g>
				<g>
					<g>
						<path class="st36" d="M605.28,136.21c0,0-2.94,2.47-5.62,3.08c-2.68,0.61-5.28-1.25-5.32-1.27c-0.03-0.02-3.13-2.15-3.13-2.15
							l-1.26,15.5l0.35,0.34c4.55,4.47,11.09,4.53,15.68,0.14l0.67-0.64L605.28,136.21z"/>
					</g>
					<path class="st36" d="M615.46,112.17c0.03,6.73-0.94,12.54-1.92,16.66c-0.96,4.04-3.71,6.87-7.6,9.16l-0.71,0.42
						c-4.12,2.42-9.45,2.51-13.66,0.21l0,0c-4.24-2.31-7.22-5.37-8.15-9.7c-1.7-7.87-1.92-16.59-1.92-16.59s-1.42-18.2,16.9-17.96
						C616.71,94.62,615.46,112.17,615.46,112.17z"/>
					<g>
						<circle class="st12" cx="590.58" cy="117.59" r="1.48"/>
						<circle class="st12" cx="605.13" cy="117.59" r="1.48"/>
						<polyline class="st38" points="596.51,121.18 596.51,123.85 598.31,123.85 						"/>
						<path d="M585.06,111.33l9.68-0.87c0,0-0.87-2.51-4.78-2.1C585.96,108.77,585.06,111.33,585.06,111.33z"/>
						<path d="M610.02,111.33l-9.68-0.87c0,0,0.87-2.51,4.78-2.1C609.13,108.77,610.02,111.33,610.02,111.33z"/>
						<path class="st39" d="M592.07,126c0,0,2.6,2.15,6.41,1.38"/>
					</g>
					<path class="st15" d="M582,105.64c0,0,11.93-9.24,33.48,0c0,0-1.9-13.42-16.74-13.42S582,105.64,582,105.64z"/>
				</g>
				<g>
					<path class="st7" d="M621.84,110.78c-1.29-12.15-9.68-18.54-15.66-20.96c-4.93-2-10.48-1.99-15.43-0.03
						c-6.05,2.4-14.56,8.79-15.85,20.99c-1.72,16.18,11.03,32.6,11.03,32.6l12.35-3.03l12.69,3.03
						C610.97,143.38,623.56,126.96,621.84,110.78z M601.6,137.92c-2.21,1.09-4.82,1.08-7.01-0.03c-8.37-4.25-12.67-14.42-12.16-25.6
						c0.29-6.28,4.05-10.68,7.84-13.54c4.8-3.62,11.39-3.62,16.19,0c3.79,2.86,7.55,7.26,7.84,13.54
						C614.83,123.51,610.14,133.72,601.6,137.92z"/>
					<path class="st7" d="M587.25,140.29l-17.11,11.37c0,0,21.93,18.27,57.59,0.96l-17.89-12.33H587.25z"/>
					<g>
						<path class="st40" d="M585.93,141.54c0,0,4.48,4.73,12.37,3.94"/>
						<path class="st40" d="M585.06,151.18c0,0,17.05,6.9,35.22-2.91"/>
						<path class="st40" d="M591.13,140.91c0,0,6,1.47,11.84-3.31"/>
						<path class="st40" d="M610.97,141.54c0,0-0.95,2.02-4.32,2.46"/>
					</g>
				</g>
			</g>
		</g>
	</g>
	<line class="st41" x1="28.8" y1="448.94" x2="700.27" y2="448.94"/>
</g>
</svg>
